<svg width="48" height="54" viewBox="0 0 48 54" fill="none" xmlns="http://www.w3.org/2000/svg">
<path d="M47.2211 23.0119C47.2373 24.7453 46.8806 26.7727 46.3132 28.7692C46.1511 29.3109 45.9728 29.4502 45.4541 29.0324C42.8279 27.0049 40.0558 25.1941 36.8947 24.0024C36.1976 23.7393 36.3435 23.2905 36.3435 22.8262C36.4084 16.6045 31.8045 11.4662 25.3688 10.6149C17.8955 9.62443 11.1032 15.2735 11.168 22.4702C11.1842 23.4452 10.9086 23.8786 9.95218 24.2655C7.03422 25.4417 4.40805 27.0823 2.02505 29.0788C1.52251 29.4967 1.39282 29.4812 1.18208 28.8466C-1.42788 20.5046 1.52251 11.0638 8.50941 5.52308C13.2592 1.76221 18.7223 -0.218822 24.8824 0.199052C34.5603 0.864555 41.4824 5.5076 45.4379 14.0044C46.832 17.0223 47.2373 19.6689 47.2211 23.0119Z" fill="#F96619"/>
<path d="M22.6292 25.194C29.7134 25.1631 35.3548 26.8191 40.4775 30.1621C41.7419 30.9824 42.8929 31.911 43.9952 32.9015C44.3519 33.211 44.3519 33.4896 44.1249 33.8456C43.3306 35.1147 42.4228 36.2909 41.4825 37.4362C41.1097 37.9005 40.8017 37.6529 40.4937 37.3433C38.4997 35.3778 36.1654 33.861 33.5716 32.7158C28.7408 30.6109 23.7154 30.1311 18.5441 31.2145C14.0861 32.1586 10.2603 34.217 7.03435 37.2969C6.61287 37.6993 6.33728 37.7457 5.93201 37.2969C4.95936 36.198 4.11639 35.0063 3.32205 33.7682C3.07889 33.3813 3.19237 33.1336 3.51659 32.8396C6.54803 30.0692 10.0496 28.0727 13.9888 26.7417C17.0851 25.7512 20.23 25.1476 22.6292 25.194Z" fill="#24262D"/>
<path d="M23.7639 34.4337C28.384 34.5266 32.5502 35.7957 36.1328 38.6125C36.7326 39.0768 37.3 39.603 37.8673 40.0982C38.1267 40.3304 38.1591 40.5471 37.8836 40.8102C36.8136 41.8162 35.7437 42.8376 34.7062 43.8746C34.3009 44.277 33.9767 44.277 33.5715 43.8746C31.0263 41.3673 27.8652 40.0673 24.2664 39.9589C20.6352 39.8506 17.3605 40.9185 14.6209 43.2555C13.3889 44.3079 13.3889 44.3544 12.1568 43.24C11.2815 42.4507 10.4547 41.5995 9.59552 40.7947C9.19025 40.4078 9.53068 40.2066 9.77384 39.9744C11.476 38.3803 13.3889 37.0338 15.5773 36.0897C18.1711 34.9599 20.9432 34.4492 23.7639 34.4337Z" fill="#24262D"/>
<path d="M31.3183 47.0163C31.2372 47.1092 31.1562 47.233 31.0427 47.3413C28.7732 49.4771 26.5036 51.5975 24.2503 53.7333C23.8126 54.1357 23.5046 53.9654 23.1642 53.6249C21.381 51.907 19.5816 50.2045 17.7822 48.5021C17.3607 48.0997 16.923 47.7282 16.4853 47.3413C16.1935 47.0627 16.1286 46.8306 16.4853 46.5056C18.8845 44.3543 21.689 43.3947 24.9798 43.7507C27.2818 43.9983 29.2595 44.896 30.9292 46.4127C31.0751 46.5675 31.3021 46.7068 31.3183 47.0163Z" fill="#24262D"/>
</svg>
